<svg xmlns="http://www.w3.org/2000/svg" width="1706.67" height="1296" version="1.0" viewBox="0 0 1280 972"><path fill="#097907" d="M315 9.8c-13.9 6.4-35.7 17.6-41.5 21.2-35.2 21.9-54.7 46.2-61 76.2-1.9 8.8-2.8 24-1.8 30.2.7 4.6 1.1 5 4.2 5.9 1.9.5 4.6 1.7 5.9 2.8 3 2.3 6.5 2.4 14.6.3 15.3-3.9 33.3-15.3 43.6-27.8 20.8-25.3 33.4-55.1 40-94.6 1.1-6.9 2.3-13.3 2.6-14.3.7-2.2-1.8-2.2-6.6.1zM959 8.9c0 2.7 5.2 30.7 7 37.6 9.7 37.1 27.3 68.1 47.8 84.5 10.7 8.5 30.7 17 40 17 1.6 0 4.1-.9 5.5-2.1 1.5-1.1 4.2-2.3 6.2-2.6 3-.5 3.5-1 4.1-4.1 1.2-6.4-.3-28.2-2.6-36.7-9.7-36.2-39.7-64.7-93.6-88.9C960.8 7.9 959 7.3 959 8.9zM154.3 52.7C136 88 128 114.8 128 140.3c0 14.7 1.2 22.3 5.1 34.2 5 15 17.3 34.6 24.1 38.4 2.4 1.4 2.9 1.3 6.3-1 4.8-3.2 15.1-16.9 20.8-27.7 9.4-18 13.1-37.4 10.8-56.9-1.6-14.1-6-30.7-12.3-46.7-5.6-14.2-18.7-40.7-20.3-41.3-.6-.2-4.3 5.9-8.2 13.4zM1108.7 56.2c-12.2 24.8-19 44.1-22.3 63.3-2.4 13.5-1.5 34.2 2 45.8 5.5 18.3 19.4 41.1 28.4 46.4l4.4 2.6 2.6-2c7.9-5.9 19.8-25.7 24.7-41.3 8.8-28.3 4.2-61.2-14.4-102-6.8-14.9-14.9-30-16.1-30-.5 0-4.7 7.8-9.3 17.2zM281 141.4c-20.3 7-24.3 8.6-38 15.7-43 22.3-65.8 54-66.4 92.3l-.1 9 3.2.7c1.7.3 4.6 1.8 6.3 3.3 2.6 2.1 4.1 2.6 8.8 2.6 7 0 20-3 27.7-6.4 25.8-11.5 48.9-40.3 65.2-81.6 2.7-6.9 12.3-38.4 12.3-40.4 0-1.3-4.2-.2-19 4.8zM981.6 140.7c.8 2.7 2.3 8.3 3.4 12.6 9.8 37.6 32.1 76.4 54 93.8 13.4 10.6 32 17.9 46.1 17.9 4.7 0 6.2-.5 9.4-3 2.3-1.8 4.9-3 6.8-3h3l-.5-11.3c-2.4-49.9-37.2-84.5-108.1-107.6-16.3-5.3-16-5.3-14.1.6zM1179.4 186.6c-24.6 31.1-37.4 55.2-42.5 79.5-2.9 14.1-2.3 31.2 1.6 44.4 3.2 11.1 11.2 27.7 15.7 32.7 3.1 3.6 3.5 3.7 7.2 2.9 5.2-1.3 9.8-5.2 17.8-15.1 24.4-30.2 31.2-61.9 23.2-108.5-2.4-13.9-11.5-48.5-12.8-48.5-.2 0-4.8 5.6-10.2 12.6zM88.1 181.7c-1.1 3.8-2.9 10-4 13.9-9.3 31.7-11.6 68-5.8 90.5 4.6 17.8 11.3 31.1 22.7 45.2 8.1 10 12.7 13.7 18.1 14.7 5.1 1 6.3-.1 12.8-11.5 6-10.4 11.7-27.7 13.2-39.4 3.1-25.9-6.1-54.2-28.1-87.1-7-10.4-24.8-33-26-33-.5 0-1.8 3-2.9 6.7zM218.5 267.6c-26.5 18.9-45.9 36.5-57.9 52.4-6.8 8.9-14.7 24.6-17.7 35-3 10.5-3.7 31.2-1.5 43.8 2 11.6 2.8 13.2 6.6 13.2 1.6 0 3.2.4 3.5 1 .3.5 2.5 1 4.8 1 8.6 0 26.2-10.5 37.6-22.6 23.2-24.4 35.5-58.6 37.6-104.4.3-6.9.8-16 1-20.3.4-5.8.2-7.7-.7-7.7-.7 0-6.7 3.9-13.3 8.6zM1048.5 275.7c.3 9.3 1.1 21.3 1.6 26.8 5.4 53.1 27.8 91.8 63 108.5 6.4 3 14.1 4 15.4 2 .3-.6 1.9-1 3.4-1 1.6 0 3.3-.6 4-1.3 4.6-5.6 6.1-39 2.3-52.9-7.6-28-23.5-49.2-57.2-76-11-8.8-30.8-22.8-32.2-22.8-.6 0-.7 6.2-.3 16.7zM38 325.6c0 2.2.5 10 1 17.4 2.5 33.5 10.8 63.4 23.4 84.8 12.9 21.7 25.3 33.9 43.8 42.7 7.8 3.8 12.3 4.4 15.4 2 1-.8 3.1-1.5 4.6-1.5 2.3 0 2.9-.6 3.7-3.8 4.2-16.1 4.7-36.5 1.2-51-7.6-31.2-33.7-59.5-81.2-88-12-7.2-11.9-7.2-11.9-2.6zM1229.5 328.8c-51.9 31.8-75.9 59.8-81.6 94.7-1.5 9.8-.6 30.6 1.8 39.9 1.7 6.5 2 6.9 5.8 8.4 6.3 2.5 12.1 2 19.5-1.8 14.5-7.3 25.3-16.9 36-31.8 19.5-27.3 28.5-58.7 31.3-109 .3-4.9.1-7.2-.7-7.2-.6 0-6 3.1-12.1 6.8zM213.1 390c-41.2 44.6-57.2 82.5-50.6 120.1 1.6 9.5 4.9 19.8 9 28 2.7 5.4 3 5.7 7.3 6.3 6 .8 11.1-1.8 20.6-10.6 25.9-23.8 37.8-55.2 36.3-95.3-.8-20.1-2.2-30.4-8.3-59.3-.2-1.2-.8-2.2-1.3-2.2s-6.4 5.8-13 13zM1053.8 377.6c-1 1.6-6.6 31.3-7.9 41.9-1.7 14.4-1.5 39.1.4 50.1 4.5 25.4 16.2 47.4 33.9 63.8 9.9 9.3 14.9 11.8 21.2 11 4.4-.7 4.9-1 7.3-5.8 8.3-16.4 12.1-36.5 10.2-53.9-2.5-23.8-12.2-45.5-32.1-71.9-9.9-13.1-32.1-36.8-33-35.2zM22 463.3c0 .2 3.5 7.9 7.8 17.3 11.6 25.2 24.8 45.4 40.5 62 10.9 11.5 19.5 18.1 31.2 23.9 19.9 9.9 45 12.4 49.9 5 1.1-1.6 3.3-2.9 6.2-3.6l4.6-1.2-.6-5.8c-1.2-10.5-4.5-21.2-10.1-32.4-17.5-35.2-50.8-53.9-113.1-63.5-12.6-1.9-16.4-2.3-16.4-1.7zM1236.5 466c-44.6 7.7-68.4 17.5-88 36.2-12 11.4-19.8 23.5-25.2 39.3-2.8 8.2-5.7 23.6-4.6 24.6.5.3 2.5 1.2 4.6 1.9 2.1.6 4.5 2.2 5.3 3.5 3.1 4.7 10.9 5.6 25.9 3 19.3-3.4 35.3-12.2 51.6-28.4 11.5-11.4 23.3-26.7 32.2-41.6 5.1-8.4 19.7-38.7 19.7-40.7 0-1.3-4.4-.8-21.5 2.2zM241.3 511.3c-38.4 51.2-50.1 92.7-37 131.2 2.9 8.3 8.9 20.7 12.4 25.4 2.4 3.1 2.9 3.3 6.7 2.7 7.4-1.2 14.9-8.1 26.8-24.7 19.2-26.7 24-58.5 15.2-100.3-3.9-18.4-12.1-45.7-14-46.3-.5-.1-5 5.2-10.1 12zM1024.2 511.7c-18.1 55.2-17.6 95.8 1.4 127.4 6.4 10.6 16.5 23.1 22 27.3 2.5 1.9 6.3 3.7 8.5 4.1 5.6 1 7.6-1.2 14.4-14.9 8.6-17.7 10-23.8 10-44.6 0-16-.3-18.4-2.8-27.4-6.3-22.9-17.9-44.6-37.9-71.4-5.4-7.2-10.2-13.2-10.6-13.2-.4 0-2.6 5.7-5 12.7zM44.6 576.7c1 1.6 5.4 8.9 9.7 16.3 23.7 40.5 53.1 67.2 84.4 76.6 7.5 2.3 10.8 2.7 22.3 2.8 14.8.1 18.7-.8 21.5-5.1.9-1.4 4.1-3.6 7.1-4.9 3-1.3 5.4-2.6 5.4-2.8 0-1.5-5.4-17.3-7.6-22.2-3.2-7.2-10.3-18.3-16.2-25.2-9.5-11.1-29.1-23.3-46.9-29.1-15.8-5.2-47.2-9.1-72.4-9.1h-9.1l1.8 2.7zM296.7 591c-12.7 26-18.9 44-22.2 63.9-2.6 15.1-1.7 36.3 1.9 48.6 5.1 17 17.3 38.2 25.3 43.9l4.1 2.9 3.4-2.1c5.9-3.7 15.6-17.4 22.4-31.6 12.5-26.4 12.1-55.3-1.1-91.1-3.5-9.7-18-39.8-22.9-48l-2.5-4-8.4 17.5zM973.8 576.1c-3.9 6.1-16.1 30.5-20.3 40.8-9.8 23.9-13.5 40.3-13.5 59.3 0 13.1 1.5 21.6 6 33.8 5.3 14.7 18.6 34.9 25.3 38.5l3.6 1.9 3.8-3c5.5-4.4 17.4-22.7 21.6-33.1 14.2-35.6 8.4-74.4-19.5-129.7-5.3-10.7-5.5-10.8-7-8.5zM1203 575.1c-33 2.5-53.6 8.1-73.5 20.4-10.6 6.5-24.5 20.6-30.7 31.2-5.2 8.8-11.4 23.8-12.4 30-.6 3.9-.6 3.9 3.6 5.3 2.5.8 5.2 2.7 6.6 4.6 3.9 5.1 7.2 5.9 22.4 5.8 11.5-.1 14.8-.5 22.3-2.8 18.1-5.4 33.2-15 49.8-31.5 14.7-14.7 24-26.8 35.8-46.5 5.5-9.3 10.1-17 10.1-17.2 0-.7-21.9-.2-34 .7zM363.1 658.7c-5.6 34.8-4.2 69.7 3.6 93 7.7 23.2 26.1 48.4 41.2 56.6 4.6 2.6 5.7 2.8 10.3 2l5.2-.8 3.2-7.5c1.8-4.2 4.5-11.6 6-16.5 2.5-8.2 2.8-10.4 2.8-25.5.1-19.2-1.3-25.5-9.3-42.6-9-19-20.2-33.7-42.8-56.2-9-8.9-16.7-16.2-17.2-16.2s-1.8 6.2-3 13.7zM899.4 659.1c-23.1 22.8-34.9 37.8-43.7 55.4-11.7 23.4-14.3 44.9-8.3 68.6 2.5 10.1 7.9 24.1 10.1 26.3.7.7 3.3 1.3 5.7 1.4 14.4.5 40.5-29.6 50.1-57.8 5.8-16.9 7.1-26.6 7.1-51.5 0-19-.4-25.8-2.3-39-1.3-8.8-2.7-16.4-3.2-16.9-.5-.6-6.8 4.9-15.5 13.5zM155.5 679.2c-9 .6-46.3 6.3-47.2 7.1-.1.2 3.2 4 7.3 8.7 4.1 4.6 9.1 11 11 14.2 3.7 6.1 14.2 16 27.8 26.2 32.8 24.7 65.3 32.7 95.1 23.5 5.3-1.6 7.1-2.8 10.1-6.4 2-2.5 5.8-5.7 8.5-7.2 2.7-1.4 4.9-3.1 4.9-3.6 0-1.6-6.9-13.7-11.9-20.7-9-12.8-19.1-21.8-32.2-28.9-10-5.4-20.1-8.6-34.4-11-14.9-2.4-24.9-2.9-39-1.9zM1100.2 679.1c-20.4 1.7-40.1 7.5-53.5 15.6-7.1 4.3-19.2 15.5-25.2 23.3-5.3 7-13.5 20.9-13.5 23.1 0 .9 2.3 3.1 5.3 4.9 2.9 1.7 6 4.4 6.9 6 2.3 4 5.3 5.7 14.4 8.1 11.6 3.1 29.7 3.1 41.9 0 16.4-4.2 33.1-12.6 49-24.6 13.5-10.2 23.5-19.6 28-26.3 2.4-3.7 7.6-10.2 11.6-14.5 3.9-4.3 6.9-8 6.6-8.3-.3-.3-8.3-1.8-17.9-3.4-15.6-2.5-21.7-3.2-38.3-4.4-2.7-.2-9.6 0-15.3.5zM450 733.4c0 1.2 13.3 34.3 15.5 38.7 13.8 27.1 33.7 52.8 50.1 64.5 13.6 9.7 32.3 16.4 46.2 16.4 6.6 0 7.6-.3 10-2.7 1.4-1.4 4.4-3.2 6.7-3.8 5-1.5 5.2-2.6 3-15.8-1.8-10.9-5.4-22.4-9.3-30.2-11.6-23.2-33.6-41-65.3-52.8-19.4-7.3-56.9-16.7-56.9-14.3zM811.5 736.5c-41.8 9.9-65.9 21.1-84.8 39.4-13 12.6-21.2 26.9-25.8 45-2.1 8.3-3.8 22.6-3 24 .3.5 2 1.2 3.8 1.5 1.7.4 4.6 2.1 6.3 3.8l3.3 3.1 9.1-.6c5-.3 11.8-1.3 15.1-2.1 8.1-2.2 21.5-8.7 28.9-14 17-12.2 36.1-36.7 49.6-63.7 4.8-9.4 16-36.8 16-39 0-1.5-3.7-1-18.5 2.6zM260.5 765.5c-10.2 1.6-21.4 4.5-34 8.9-14.8 5-26.9 9.6-27.8 10.5-.4.4 3.2 4 8.1 7.8 5.7 4.6 9.6 8.5 10.8 10.9 2.3 4.7 9.5 9.6 27.1 18.6 15.1 7.7 23.3 10.9 36.6 14.3 23.2 5.9 44.7 3.9 64.5-5.8 3.5-1.7 7.1-4.2 8-5.6 1-1.4 5-5.8 9-9.7l7.3-7.1-7.2-8.8c-14.8-17.9-33.4-29.4-55.2-34-8.5-1.8-35.8-1.8-47.2 0zM968.5 766.4c-16.6 4.3-29.8 11.8-42.3 23.9-8 7.8-15.6 17.1-15 18.5.1.5 2.6 2.8 5.3 5.2 2.8 2.3 5.9 5.9 7.1 7.9 2.5 4.4 7.9 8.2 16.4 11.5 12.6 4.9 18.6 6 33.5 6 12 0 15.5-.4 24.5-2.7 13.4-3.4 23.5-7.3 37.1-14.3 16.4-8.4 25.5-14.6 27.8-19.1 1.1-2.2 4.9-6.1 9.1-9.3 12.8-9.8 11.8-8.7 9.5-9.6-1.1-.4-7.1-2.7-13.4-5.1-30-11.5-48.7-15.3-73.9-15.3-14.2.1-18.1.5-25.7 2.4zM402.6 825.1c-19.2 2.8-40.9 11.5-62.6 25.1-10.4 6.6-33 22.8-33 23.7 0 .3 3.9 2.2 8.7 4.1 6.7 2.7 9 4.2 10.3 6.5 2.4 4.4 6.4 6.3 21.6 10.1 44.3 11.1 78 7.3 103.9-11.8 7-5.2 10.1-8.7 20.1-22.8l7.5-10.5-3.3-2.8c-5.7-4.9-19-12.6-27.3-15.8-15.5-6.1-30.9-8-45.9-5.8zM846.2 826.5c-5.9 1.4-14.2 4.3-19.7 6.9-9.8 4.6-24.5 14.1-24.5 15.8 0 .6 2.6 4.7 5.9 9.1 3.2 4.5 6.5 9.6 7.4 11.2 1.8 3.6 9.3 10.7 15.8 15.3 8 5.4 18.7 10.3 28.7 12.9 8.6 2.3 11.7 2.6 27.2 2.7 19 0 27.5-1.1 47.9-6.4 12.8-3.4 17-5.4 18.8-9.2 1.2-2.3 9.7-7 17.1-9.2 1.2-.4 2.2-1.1 2.2-1.6 0-1.2-16.8-13.6-29.5-21.9-21.5-13.9-43.6-23.2-63.4-26.5-12.8-2.2-21.6-1.9-33.9.9zM630.3 849.1c-8 3.9-12.5 11.5-12.5 20.9 0 6.8 1.6 10.7 7.5 18.5 5.4 7.2 9 9.5 14.9 9.5 5.2 0 8.6-2.1 14-8.6 8.2-9.9 10.5-18.4 7.3-27.5-4.4-12.4-19.6-18.6-31.2-12.8zM524.7 867.5c-26.8 5.1-52.8 19.8-86.5 48.9-5.1 4.4-9.2 8.3-9.2 8.7 0 .4 2.1 1.2 4.7 1.9 8.2 2 14.2 5 14.5 7.3.5 3.1 6.1 5.4 19.3 7.9 10.1 1.8 15.6 2.2 34.5 2.2 21.1 0 23.1-.2 32.2-2.6 18.2-5 32.7-13.4 44-25.6 4.8-5.3 19.8-28 19.8-30.1 0-1.2-14.1-9.3-21.6-12.5-16.6-6.8-35.7-9.1-51.7-6.1zM724.5 867.5c-3.8.7-9.9 2.3-13.5 3.5-7.3 2.5-22.6 10.1-26.5 13.1l-2.4 2 8 13.2c4.4 7.3 10.2 15.4 12.7 18 11.3 11.7 25.5 19.7 43 24.5 9.1 2.4 11.1 2.6 32.2 2.6 18.8 0 24.4-.4 34.3-2.2 13-2.4 19.7-5.2 19.7-8.1 0-2 4.2-4 14.8-7.1 2.3-.7 4.2-1.6 4.2-2 0-.4-3.3-3.7-7.2-7.2-45.2-40.3-84.4-56.8-119.3-50.3z"/></svg>